<svg width="41" height="41" viewBox="0 0 41 41" fill="none" xmlns="http://www.w3.org/2000/svg">
<g clip-path="url(#clip0_1116_8)">
<path d="M11.4028 13.8419C11.7272 13.8419 11.9901 13.579 11.9901 13.2546C11.9901 12.9302 11.7272 12.6672 11.4028 12.6672C11.0784 12.6672 10.8154 12.9302 10.8154 13.2546C10.8154 13.579 11.0784 13.8419 11.4028 13.8419Z" fill="url(#paint0_linear_1116_8)"/>
<path d="M17.2989 13.8406H14.1386C13.815 13.8406 13.5527 13.5783 13.5527 13.2546C13.5527 12.931 13.815 12.6687 14.1386 12.6687H17.2989C17.6225 12.6687 17.8848 12.931 17.8848 13.2546C17.8848 13.5783 17.6225 13.8406 17.2989 13.8406ZM17.2989 16.0472H11.3975C11.0738 16.0472 10.8115 15.785 10.8115 15.4613C10.8115 15.1376 11.0738 14.8753 11.3975 14.8753H17.2989C17.6225 14.8753 17.8848 15.1376 17.8848 15.4613C17.8848 15.785 17.6225 16.0472 17.2989 16.0472Z" fill="url(#paint1_linear_1116_8)"/>
<path d="M18.8719 21.3081H9.5323C8.40465 21.3081 7.4873 20.3908 7.4873 19.2631V9.92361C7.4873 8.79596 8.40465 7.87861 9.5323 7.87861C9.85598 7.87861 10.1182 8.14088 10.1182 8.46455C10.1182 8.78822 9.85598 9.05049 9.5323 9.05049C9.0509 9.05049 8.65918 9.44221 8.65918 9.92361V19.2632C8.65918 19.7446 9.0509 20.1363 9.5323 20.1363H18.872C19.3534 20.1363 19.7451 19.7446 19.7451 19.2632V9.92361C19.7451 9.44221 19.3534 9.05049 18.872 9.05049H12.4203C12.0966 9.05049 11.8343 8.78822 11.8343 8.46455C11.8343 8.14088 12.0966 7.87861 12.4203 7.87861H18.872C19.9996 7.87861 20.917 8.79596 20.917 9.92361V19.2632C20.9169 20.3908 19.9996 21.3081 18.8719 21.3081ZM15.37 3.36768H13.0343C12.7106 3.36768 12.4483 3.10541 12.4483 2.78174C12.4483 2.45807 12.7106 2.1958 13.0343 2.1958H15.37C15.6936 2.1958 15.9559 2.45807 15.9559 2.78174C15.9559 3.10541 15.6936 3.36768 15.37 3.36768Z" fill="url(#paint2_linear_1116_8)"/>
<path d="M22.8279 3.93549C23.1465 3.93549 23.4047 3.67721 23.4047 3.35861C23.4047 3.04001 23.1465 2.78174 22.8279 2.78174C22.5093 2.78174 22.251 3.04001 22.251 3.35861C22.251 3.67721 22.5093 3.93549 22.8279 3.93549Z" fill="url(#paint3_linear_1116_8)"/>
<path d="M23.6892 26.5328C23.5866 26.533 23.4857 26.5061 23.3967 26.455C23.3078 26.4038 23.2338 26.3302 23.1822 26.2415C22.9328 25.812 22.8015 25.3242 22.8018 24.8275V24.7505C22.8018 24.4268 23.064 24.1646 23.3877 24.1646C23.7114 24.1646 23.9736 24.4268 23.9736 24.7505V24.8276C23.9733 25.1172 24.0498 25.4016 24.1951 25.6521C24.2469 25.7411 24.2744 25.8422 24.2746 25.9452C24.2749 26.0481 24.2481 26.1494 24.1968 26.2387C24.1455 26.328 24.0715 26.4022 23.9824 26.4539C23.8933 26.5055 23.7922 26.5327 23.6892 26.5328Z" fill="url(#paint4_linear_1116_8)"/>
<path d="M38.0867 31.8322L33.9004 27.646H34.6442C35.6565 27.646 36.4801 26.8224 36.4801 25.81C36.4801 24.7977 35.6565 23.9741 34.6442 23.9741H34.07V23.6381C34.07 23.3144 33.8078 23.0521 33.4841 23.0521C33.1604 23.0521 32.8982 23.3144 32.8982 23.6381V23.9741H29.4704C28.9849 23.9696 28.5022 24.178 28.1472 24.5389C27.807 24.8849 27.6242 25.3379 27.6321 25.8154V26.47H25.9416C25.8595 26.47 25.7783 26.4873 25.7033 26.5206C25.6283 26.554 25.5612 26.6028 25.5063 26.6638C25.4513 26.7247 25.4098 26.7966 25.3844 26.8747C25.359 26.9527 25.3503 27.0353 25.3589 27.1169C25.3568 27.1371 25.3557 27.1575 25.3557 27.1778V37.1044C25.3557 38.2188 24.449 39.1255 23.3346 39.1255H5.06895C3.95449 39.1255 3.04785 38.2188 3.04785 37.1044V3.49033C3.04785 2.37588 3.95449 1.46924 5.06895 1.46924H7.3502L7.61465 2.84979C7.86246 4.14307 8.99777 5.08174 10.3143 5.08174H18.0894C19.406 5.08174 20.5413 4.14299 20.7891 2.84971L21.0533 1.46924H23.3346C24.449 1.46924 25.3557 2.37588 25.3557 3.49033V15.4704C25.3557 15.7941 25.6179 16.0563 25.9416 16.0563C26.2653 16.0563 26.5275 15.7941 26.5275 15.4704V3.49033C26.5275 1.72971 25.0952 0.297363 23.3346 0.297363H5.06895C3.30832 0.297363 1.87598 1.72971 1.87598 3.49033V37.1044C1.87598 38.865 3.30832 40.2974 5.06895 40.2974H23.3346C25.0952 40.2974 26.5275 38.865 26.5275 37.1044V27.6419H27.6321V30.9861C27.6321 31.9985 28.4557 32.8221 29.468 32.8221C30.4804 32.8221 31.3039 31.9985 31.3039 30.9861V30.2423L35.4902 34.4286L35.4966 34.4349C35.8325 34.7606 36.3103 34.961 36.8059 34.961C37.2454 34.961 37.6989 34.8033 38.0795 34.4356L38.0867 34.4285C38.4334 34.0818 38.6244 33.6207 38.6244 33.1303C38.6244 32.6399 38.4333 32.1789 38.0867 31.8322ZM19.8602 1.46924L19.638 2.62932C19.4959 3.37135 18.8446 3.90994 18.0893 3.90994H10.3143C9.55902 3.90994 8.9077 3.37135 8.76559 2.62932L8.5434 1.46924H19.8602ZM37.2614 33.5964C36.9375 33.9055 36.5072 33.78 36.3152 33.5962L31.1324 28.4134C31.0505 28.3314 30.946 28.2756 30.8324 28.253C30.7187 28.2304 30.6009 28.242 30.4938 28.2864C30.3867 28.3308 30.2952 28.4059 30.2308 28.5022C30.1664 28.5986 30.1321 28.7119 30.1321 28.8278V30.9861C30.1321 31.3523 29.8342 31.6502 29.468 31.6502C29.1018 31.6502 28.8039 31.3523 28.8039 30.9861V25.81L28.8038 25.7981C28.7996 25.5912 28.8987 25.446 28.9826 25.3607C29.1131 25.2281 29.2972 25.146 29.4661 25.146H34.6441C35.0103 25.146 35.3082 25.4438 35.3082 25.81C35.3082 26.1762 35.0103 26.4741 34.6441 26.4741H32.4857C32.3698 26.474 32.2565 26.5084 32.1601 26.5727C32.0637 26.6371 31.9886 26.7286 31.9442 26.8357C31.8998 26.9428 31.8882 27.0607 31.9109 27.1744C31.9335 27.288 31.9894 27.3925 32.0714 27.4744L37.2579 32.661C37.3198 32.7225 37.3689 32.7956 37.4022 32.8762C37.4356 32.9568 37.4527 33.0432 37.4525 33.1305C37.4529 33.305 37.3842 33.4725 37.2614 33.5964Z" fill="url(#paint5_linear_1116_8)"/>
<path d="M23.388 22.6022C23.3111 22.6022 23.2349 22.5871 23.1638 22.5576C23.0927 22.5282 23.0281 22.485 22.9737 22.4306C22.9193 22.3762 22.8761 22.3116 22.8467 22.2405C22.8172 22.1694 22.8021 22.0932 22.8021 22.0163V20.7663C22.8021 20.4426 23.0643 20.1803 23.388 20.1803C23.7117 20.1803 23.9739 20.4426 23.9739 20.7663V22.0163C23.9739 22.1717 23.9122 22.3207 23.8023 22.4306C23.6924 22.5405 23.5434 22.6022 23.388 22.6022ZM33.4845 21.4897C33.4075 21.4897 33.3313 21.4746 33.2603 21.4451C33.1892 21.4157 33.1246 21.3725 33.0701 21.3181C33.0157 21.2637 32.9726 21.1991 32.9431 21.128C32.9137 21.0569 32.8985 20.9807 32.8986 20.9038V19.6538C32.8986 19.3301 33.1608 19.0678 33.4845 19.0678C33.8082 19.0678 34.0704 19.3301 34.0704 19.6538V20.9038C34.0704 21.0592 34.0087 21.2082 33.8988 21.3181C33.7889 21.428 33.6399 21.4897 33.4845 21.4897ZM23.68 18.6692C23.5774 18.6691 23.4766 18.6421 23.3877 18.5908C23.2988 18.5396 23.225 18.4659 23.1735 18.3771C23.1221 18.2883 23.0948 18.1876 23.0945 18.085C23.0943 17.9824 23.1209 17.8815 23.1718 17.7924C23.4343 17.3329 23.8209 16.9566 24.2874 16.7066C24.4242 16.6347 24.5838 16.6198 24.7316 16.665C24.8793 16.7103 25.0032 16.8121 25.0763 16.9483C25.1493 17.0845 25.1656 17.244 25.1216 17.3921C25.0776 17.5403 24.9768 17.665 24.8413 17.7392C24.5686 17.8854 24.3426 18.1054 24.1891 18.3741C24.1378 18.4638 24.0637 18.5384 23.9743 18.5903C23.8849 18.6421 23.7833 18.6694 23.68 18.6692ZM32.4265 17.8775C32.3178 17.8776 32.2112 17.8472 32.1189 17.7898C31.8597 17.6297 31.5609 17.5451 31.2563 17.5454H31.2393C30.9157 17.5454 30.6534 17.2831 30.6534 16.9595C30.6534 16.6358 30.9157 16.3735 31.2393 16.3735H31.2563C31.7787 16.3731 32.291 16.5185 32.7354 16.7932C32.8438 16.8603 32.9274 16.9609 32.9735 17.0798C33.0196 17.1987 33.0257 17.3294 32.9907 17.4521C32.9558 17.5747 32.8818 17.6826 32.78 17.7594C32.6781 17.8362 32.5541 17.8777 32.4265 17.8775ZM28.505 17.5454H27.255C26.9313 17.5454 26.669 17.2831 26.669 16.9595C26.669 16.6358 26.9313 16.3735 27.255 16.3735H28.505C28.8286 16.3735 29.0909 16.6358 29.0909 16.9595C29.0909 17.2831 28.8286 17.5454 28.505 17.5454ZM19.4739 36.3489C19.397 36.3489 19.3208 36.3337 19.2497 36.3043C19.1786 36.2748 19.114 36.2317 19.0596 36.1773C19.0052 36.1228 18.962 36.0582 18.9326 35.9872C18.9031 35.9161 18.888 35.8399 18.888 35.7629V26.3874C18.888 26.0637 19.1503 25.8014 19.4739 25.8014C19.7976 25.8014 20.0599 26.0637 20.0599 26.3874V35.7629C20.0599 35.9183 19.9981 36.0673 19.8883 36.1772C19.7784 36.2871 19.6293 36.3489 19.4739 36.3489ZM12.135 36.3489H12.1287C11.3807 36.3478 10.6933 36.1505 10.086 35.7624C8.91426 35.0139 8.34473 34.0575 8.34473 32.8388V26.3874C8.34473 26.0637 8.60699 25.8014 8.93066 25.8014C9.25434 25.8014 9.5166 26.0637 9.5166 26.3874V32.8388C9.5166 33.6583 9.87559 34.2374 10.7169 34.7749C11.1333 35.0409 11.6089 35.1762 12.1304 35.1769C12.5943 35.1754 13.0292 35.0794 13.4148 34.8852C14.3868 34.3956 14.8593 33.724 14.8593 32.832V26.3874C14.8593 26.0637 15.1216 25.8014 15.4453 25.8014C15.7689 25.8014 16.0312 26.0637 16.0312 26.3874V32.832C16.0312 34.1715 15.3087 35.2435 13.9418 35.9318C13.3924 36.2085 12.7845 36.3489 12.135 36.3489Z" fill="url(#paint6_linear_1116_8)"/>
</g>
<defs>
<linearGradient id="paint0_linear_1116_8" x1="11.4224" y1="12.6604" x2="11.8861" y2="13.6269" gradientUnits="userSpaceOnUse">
<stop offset="0.259336" stop-color="#FFDB6E"/>
<stop offset="1" stop-color="#FFBC5E"/>
</linearGradient>
<linearGradient id="paint1_linear_1116_8" x1="14.4664" y1="12.6491" x2="15.211" y2="15.8979" gradientUnits="userSpaceOnUse">
<stop offset="0.259336" stop-color="#FFDB6E"/>
<stop offset="1" stop-color="#FFBC5E"/>
</linearGradient>
<linearGradient id="paint2_linear_1116_8" x1="14.4266" y1="2.08497" x2="23.4352" y2="15.2775" gradientUnits="userSpaceOnUse">
<stop offset="0.259336" stop-color="#FFDB6E"/>
<stop offset="1" stop-color="#FFBC5E"/>
</linearGradient>
<linearGradient id="paint3_linear_1116_8" x1="22.8471" y1="2.77505" x2="23.3026" y2="3.72425" gradientUnits="userSpaceOnUse">
<stop offset="0.259336" stop-color="#FFDB6E"/>
<stop offset="1" stop-color="#FFBC5E"/>
</linearGradient>
<linearGradient id="paint4_linear_1116_8" x1="23.5628" y1="24.1508" x2="24.7221" y2="25.6534" gradientUnits="userSpaceOnUse">
<stop offset="0.259336" stop-color="#FFDB6E"/>
<stop offset="1" stop-color="#FFBC5E"/>
</linearGradient>
<linearGradient id="paint5_linear_1116_8" x1="20.8645" y1="0.0654111" x2="37.4773" y2="31.8739" gradientUnits="userSpaceOnUse">
<stop offset="0.259336" stop-color="#FFDB6E"/>
<stop offset="1" stop-color="#FFBC5E"/>
</linearGradient>
<linearGradient id="paint6_linear_1116_8" x1="21.6376" y1="16.2577" x2="28.2519" y2="34.0109" gradientUnits="userSpaceOnUse">
<stop offset="0.259336" stop-color="#FFDB6E"/>
<stop offset="1" stop-color="#FFBC5E"/>
</linearGradient>
<clipPath id="clip0_1116_8">
<rect width="40" height="40" fill="white" transform="translate(0.250977 0.297363)"/>
</clipPath>
</defs>
</svg>
