<svg width="40" height="40" viewBox="0 0 40 40" fill="none" xmlns="http://www.w3.org/2000/svg">
<path d="M36.6675 5.23584H19.3409C17.8087 5.23584 16.5586 6.48303 16.5586 8.01818V8.11318C15.4837 8.31217 14.6641 9.25639 14.6641 10.3878V15.3765C14.664 15.435 14.6754 15.4929 14.6978 15.547C14.7202 15.6011 14.753 15.6502 14.7943 15.6916C14.8357 15.733 14.8848 15.7658 14.9389 15.7881C14.993 15.8105 15.0509 15.8219 15.1095 15.8219C15.168 15.8219 15.2259 15.8105 15.28 15.7881C15.3341 15.7658 15.3832 15.733 15.4246 15.6916C15.466 15.6502 15.4988 15.6011 15.5211 15.547C15.5435 15.4929 15.5549 15.435 15.5548 15.3765V10.3878C15.5548 9.60389 16.1933 8.96545 16.9772 8.96545H31.2542V12.7663C31.2542 13.6542 31.9758 14.3728 32.8637 14.3728H36.6645V32.4507C36.6645 33.2346 36.0261 33.873 35.2392 33.873H16.9773C16.1934 33.873 15.5549 33.2346 15.5549 32.4507V27.6907C15.555 27.6322 15.5435 27.5742 15.5212 27.5201C15.4988 27.4661 15.466 27.4169 15.4247 27.3756C15.3833 27.3342 15.3341 27.3014 15.2801 27.279C15.226 27.2567 15.168 27.2452 15.1095 27.2453C15.051 27.2452 14.9931 27.2567 14.939 27.279C14.8849 27.3014 14.8358 27.3342 14.7944 27.3756C14.753 27.4169 14.7202 27.4661 14.6979 27.5201C14.6755 27.5742 14.6641 27.6322 14.6641 27.6907V32.4507C14.6641 33.7246 15.7034 34.7639 16.9773 34.7639H35.2394C36.5163 34.7639 37.5555 33.7246 37.5555 32.4507V31.7766C38.672 31.3995 39.4501 30.3483 39.4501 29.1427V8.01818C39.4499 6.48295 38.2027 5.23584 36.6675 5.23584ZM38.5591 29.1427C38.5591 29.8554 38.1582 30.4849 37.5554 30.8056V13.9303C37.5554 13.8086 37.496 13.6868 37.4248 13.6155V13.6126L32.0145 8.20521V8.20225C31.9462 8.13693 31.8273 8.07459 31.6997 8.07459H17.4494V8.01818C17.4494 6.97592 18.2986 6.12662 19.3409 6.12662H36.6676C37.7128 6.12662 38.5591 6.97592 38.5591 8.01818L38.5591 29.1427Z" fill="url(#paint0_linear_1117_77)"/>
<path d="M20.6858 10.2036H18.5093C17.6036 10.2036 16.8672 10.94 16.8672 11.8457C16.8672 12.7485 17.6036 13.4849 18.5093 13.4849H20.6858C21.5886 13.4849 22.325 12.7485 22.325 11.8457C22.325 10.9401 21.5886 10.2036 20.6858 10.2036ZM20.6858 12.594H18.5093C18.0965 12.594 17.758 12.2585 17.758 11.8457C17.758 11.433 18.0965 11.0945 18.5093 11.0945H20.6858C21.0986 11.0945 21.4341 11.433 21.4341 11.8457C21.4342 12.2585 21.0987 12.594 20.6858 12.594ZM27.6047 16.6117C24.8787 16.6117 22.6398 18.714 22.4141 21.3806H19.8455C19.787 21.3805 19.7291 21.392 19.675 21.4143C19.6209 21.4367 19.5718 21.4695 19.5304 21.5109C19.489 21.5522 19.4562 21.6014 19.4339 21.6554C19.4115 21.7095 19.4001 21.7675 19.4001 21.826V22.69C19.4001 22.7486 19.4115 22.8065 19.4339 22.8606C19.4562 22.9147 19.489 22.9638 19.5304 23.0052C19.5718 23.0465 19.6209 23.0793 19.675 23.1017C19.7291 23.1241 19.787 23.1355 19.8455 23.1354C19.904 23.1355 19.962 23.1241 20.0161 23.1017C20.0701 23.0793 20.1193 23.0465 20.1607 23.0052C20.202 22.9638 20.2348 22.9147 20.2572 22.8606C20.2795 22.8065 20.291 22.7486 20.2909 22.69V22.2714H27.1592V29.1397H20.2909V28.3528C20.291 28.2943 20.2795 28.2363 20.2572 28.1822C20.2348 28.1282 20.202 28.079 20.1607 28.0377C20.1193 27.9963 20.0701 27.9635 20.0161 27.9411C19.962 27.9188 19.904 27.9073 19.8455 27.9074C19.787 27.9073 19.7291 27.9188 19.675 27.9411C19.6209 27.9635 19.5718 27.9963 19.5304 28.0377C19.489 28.079 19.4562 28.1282 19.4339 28.1822C19.4115 28.2363 19.4001 28.2943 19.4001 28.3528V29.585C19.4001 29.6436 19.4115 29.7015 19.4339 29.7556C19.4562 29.8097 19.489 29.8588 19.5304 29.9002C19.5718 29.9415 19.6209 29.9743 19.675 29.9967C19.7291 30.0191 19.787 30.0305 19.8455 30.0304H27.6047C27.6632 30.0305 27.7211 30.0191 27.7752 29.9967C27.8293 29.9743 27.8784 29.9415 27.9198 29.9002C27.9612 29.8588 27.994 29.8097 28.0163 29.7556C28.0387 29.7015 28.0501 29.6436 28.0501 29.585V27.0165C30.7166 26.7908 32.819 24.5519 32.819 21.826C32.819 18.9516 30.479 16.6117 27.6047 16.6117ZM28.0501 26.1257V21.826C28.0501 21.7675 28.0387 21.7095 28.0163 21.6554C27.994 21.6014 27.9612 21.5522 27.9198 21.5109C27.8784 21.4695 27.8293 21.4367 27.7752 21.4143C27.7211 21.392 27.6632 21.3805 27.6047 21.3806H23.3049C23.5276 19.204 25.3716 17.5025 27.6047 17.5025C29.9891 17.5025 31.9282 19.4416 31.9282 21.8261C31.9281 24.059 30.2266 25.903 28.0501 26.1257ZM19.0052 26.3099L18.1887 20.469C18.1738 20.3735 18.1291 20.2852 18.061 20.2166L10.4206 12.5733C10.9403 11.8993 10.8987 10.9282 10.2811 10.3106C9.6842 9.71371 8.72811 9.61871 8.01537 10.1711L6.93154 9.08723C5.95756 8.11621 4.38678 8.12512 3.4217 9.08723L3.39795 9.11098C3.30295 9.20598 2.87232 9.6395 1.27779 11.2341C0.309746 12.2022 0.309746 13.7759 1.27779 14.7439L2.38834 15.8515C1.9667 16.5582 2.10623 17.4046 2.64373 17.945C3.1842 18.4854 4.03342 18.622 4.73717 18.2033L12.4072 25.8733C12.4759 25.9423 12.5659 25.9863 12.6626 25.9981C12.6833 26.0011 12.7012 26.004 12.713 26.007C12.719 26.007 12.7219 26.007 12.7249 26.01C12.7338 26.01 12.7457 26.0129 12.7576 26.0129C13.0753 26.0575 14.3165 26.2297 18.5004 26.8147C18.64 26.8325 18.7796 26.7879 18.8776 26.687C18.9262 26.638 18.9629 26.5786 18.985 26.5132C19.0072 26.4479 19.0141 26.3783 19.0052 26.3099ZM14.5094 23.2276L7.1542 15.8693L8.0599 14.9636L15.4181 22.3189L14.5094 23.2276ZM17.1612 20.5759L16.0476 21.6894L8.68943 14.3341L9.80592 13.2176L17.1612 20.5759ZM4.44904 17.3154C4.13428 17.6272 3.58787 17.6272 3.27615 17.3154C2.95248 16.9918 2.95248 16.4661 3.27615 16.1425C5.426 13.9927 6.32576 13.09 8.47561 10.9401C8.79928 10.6164 9.32779 10.6164 9.65154 10.9401C9.97521 11.2638 9.97521 11.7893 9.65154 12.113C7.39771 14.3668 7.00271 14.7588 4.44904 17.3154ZM5.40818 17.6154L6.5217 16.5018L13.88 23.8572L12.7665 24.9707L5.40818 17.6154Z" fill="url(#paint1_linear_1117_77)"/>
<defs>
<linearGradient id="paint0_linear_1117_77" x1="27.4714" y1="5.06461" x2="40.3476" y2="27.5904" gradientUnits="userSpaceOnUse">
<stop offset="0.259336" stop-color="#FFDB6E"/>
<stop offset="1" stop-color="#FFBC5E"/>
</linearGradient>
<linearGradient id="paint1_linear_1117_77" x1="17.2247" y1="8.23666" x2="23.6265" y2="28.1048" gradientUnits="userSpaceOnUse">
<stop offset="0.259336" stop-color="#FFDB6E"/>
<stop offset="1" stop-color="#FFBC5E"/>
</linearGradient>
</defs>
</svg>
