<svg width="41" height="41" viewBox="0 0 41 41" fill="none" xmlns="http://www.w3.org/2000/svg">
<path d="M37.5526 9.29407C37.9361 9.29451 38.3121 9.18775 38.6382 8.98584C38.9642 8.78393 39.2273 8.49492 39.3979 8.15141C39.5684 7.8079 39.6395 7.42357 39.6032 7.04178C39.5669 6.66 39.4246 6.29596 39.1924 5.99075C38.9602 5.68554 38.6473 5.45131 38.289 5.31448C37.9307 5.17765 37.5414 5.14368 37.1648 5.2164C36.7883 5.28911 36.4395 5.46562 36.158 5.72601C35.8764 5.98639 35.6732 6.32028 35.5714 6.69001H23.2973V5.42407C23.2972 5.27906 23.2396 5.14001 23.137 5.03746C23.0345 4.93492 22.8954 4.87728 22.7504 4.8772H19.1254C18.9804 4.87728 18.8414 4.93492 18.7388 5.03746C18.6363 5.14001 18.5786 5.27906 18.5785 5.42407V6.78407H6.32855C6.21896 6.29854 5.93705 5.8692 5.53507 5.57565C5.1331 5.2821 4.63833 5.14425 4.14248 5.18765C3.64663 5.23105 3.18332 5.45275 2.83845 5.81166C2.49359 6.17058 2.29054 6.64235 2.26696 7.13954C2.24338 7.63673 2.40086 8.12561 2.71021 8.51555C3.01956 8.90549 3.4598 9.17005 3.94932 9.26018C4.43884 9.35031 4.94444 9.25991 5.37239 9.00572C5.80034 8.75153 6.12162 8.35081 6.27667 7.87782H14.4354C9.09167 9.90907 5.17917 14.3663 4.27511 19.8188H2.81292C2.66791 19.8188 2.52885 19.8765 2.42631 19.979C2.32377 20.0816 2.26613 20.2206 2.26604 20.3656V23.9906C2.26604 24.1357 2.32366 24.2748 2.42622 24.3773C2.52878 24.4799 2.66788 24.5375 2.81292 24.5375H6.43792C6.58296 24.5375 6.72206 24.4799 6.82462 24.3773C6.92718 24.2748 6.9848 24.1357 6.9848 23.9906V20.3656C6.98471 20.2206 6.92707 20.0816 6.82453 19.979C6.72199 19.8765 6.58294 19.8188 6.43792 19.8188H5.38167C6.49136 13.6413 11.7926 8.87032 18.5785 7.94751V9.04907C18.5785 9.19411 18.6362 9.33321 18.7387 9.43577C18.8413 9.53833 18.9804 9.59595 19.1254 9.59595H19.9145L11.631 21.985C11.5777 22.0649 11.5464 22.1574 11.5401 22.2532C11.5339 22.349 11.5529 22.4448 11.5954 22.531L15.3823 30.2056C14.6717 30.8283 14.103 31.5961 13.7145 32.4573C13.3261 33.3185 13.1269 34.2531 13.1304 35.1978C13.1374 35.338 13.198 35.4702 13.2997 35.567C13.4013 35.6637 13.5363 35.7178 13.6767 35.7178H28.1992C28.3396 35.7178 28.4746 35.6639 28.5763 35.5671C28.678 35.4702 28.7385 35.338 28.7454 35.1978C28.749 34.2531 28.5498 33.3185 28.1613 32.4573C27.7728 31.5961 27.2041 30.8283 26.4935 30.2056L30.2817 22.5294C30.3242 22.4433 30.3432 22.3475 30.337 22.2516C30.3307 22.1558 30.2994 22.0633 30.246 21.9834L21.9614 9.59595H22.7504C22.8955 9.59595 23.0346 9.53833 23.1371 9.43577C23.2397 9.33321 23.2973 9.19411 23.2973 9.04907V7.94751C30.0832 8.87032 35.3845 13.6422 36.4942 19.8188H35.4379C35.2929 19.8188 35.1539 19.8765 35.0513 19.979C34.9488 20.0816 34.8911 20.2206 34.891 20.3656V23.9906C34.891 24.1357 34.9487 24.2748 35.0512 24.3773C35.1538 24.4799 35.2929 24.5375 35.4379 24.5375H39.0629C39.208 24.5375 39.3471 24.4799 39.4496 24.3773C39.5522 24.2748 39.6098 24.1357 39.6098 23.9906V20.3656C39.6097 20.2206 39.5521 20.0816 39.4495 19.979C39.347 19.8765 39.2079 19.8188 39.0629 19.8188H37.6007C36.6826 14.2803 32.6607 9.76845 27.1879 7.78376H35.572C35.6919 8.21728 35.9504 8.59962 36.308 8.87235C36.6657 9.14509 37.1028 9.29321 37.5526 9.29407ZM5.89105 23.4438H3.3598V20.9125H5.89105V23.4438ZM38.516 23.4438H35.9848V20.9125H38.516V23.4438ZM37.5526 6.27313C37.7432 6.27313 37.9296 6.32966 38.088 6.43556C38.2465 6.54145 38.3701 6.69197 38.443 6.86807C38.5159 7.04418 38.535 7.23795 38.4978 7.4249C38.4607 7.61185 38.3689 7.78358 38.2341 7.91836C38.0993 8.05314 37.9276 8.14493 37.7406 8.18212C37.5537 8.2193 37.3599 8.20022 37.1838 8.12727C37.0077 8.05433 36.8572 7.9308 36.7513 7.77232C36.6454 7.61383 36.5889 7.4275 36.5889 7.23688C36.5891 6.98136 36.6907 6.73637 36.8714 6.55568C37.0521 6.375 37.2971 6.27338 37.5526 6.27313ZM4.32323 8.20032C4.13261 8.20032 3.94626 8.14379 3.78777 8.03788C3.62927 7.93197 3.50575 7.78143 3.43281 7.60531C3.35988 7.42919 3.34081 7.2354 3.37802 7.04844C3.41524 6.86148 3.50705 6.68976 3.64187 6.55499C3.77668 6.42022 3.94844 6.32845 4.13541 6.2913C4.32238 6.25415 4.51616 6.27328 4.69226 6.34627C4.86836 6.41927 5.01885 6.54284 5.12471 6.70137C5.23057 6.8599 5.28704 7.04626 5.28698 7.23688C5.28673 7.49238 5.18511 7.73734 5.00441 7.91797C4.82372 8.09861 4.57873 8.20016 4.32323 8.20032ZM20.9379 20.3863C21.2923 20.3863 21.6387 20.4913 21.9334 20.6882C22.2281 20.8851 22.4577 21.1649 22.5934 21.4923C22.729 21.8197 22.7645 22.18 22.6954 22.5276C22.6263 22.8752 22.4556 23.1945 22.2051 23.4451C21.9545 23.6957 21.6353 23.8664 21.2877 23.9355C20.9401 24.0047 20.5798 23.9693 20.2524 23.8337C19.925 23.6981 19.6451 23.4685 19.4482 23.1739C19.2513 22.8792 19.1461 22.5328 19.146 22.1784C19.1465 21.7033 19.3354 21.2478 19.6713 20.9117C20.0073 20.5757 20.4628 20.3868 20.9379 20.3863ZM27.6304 34.6241H14.2482C14.3192 33.9017 14.5327 33.2006 14.8764 32.5613C15.2201 31.9219 15.6871 31.3571 16.2504 30.8994H25.6254C26.1911 31.3552 26.6598 31.9196 27.0041 32.5592C27.3485 33.1989 27.5614 33.9009 27.6304 34.6241ZM25.4714 29.8056H16.4045L12.7157 22.3288L20.391 10.8509V19.3463C19.6863 19.4823 19.0575 19.8761 18.6275 20.4508C18.1975 21.0255 17.9971 21.7398 18.0654 22.4543C18.1337 23.1688 18.4659 23.8322 18.997 24.3149C19.5282 24.7977 20.2202 25.0652 20.9379 25.0652C21.6557 25.0652 22.3477 24.7977 22.8788 24.3149C23.41 23.8322 23.7421 23.1688 23.8104 22.4543C23.8788 21.7398 23.6784 21.0255 23.2483 20.4508C22.8183 19.8761 22.1896 19.4823 21.4848 19.3463V10.8509L29.1601 22.3288L25.4714 29.8056ZM22.2035 8.5022H19.6723V5.97095H22.2035V8.5022Z" fill="url(#paint0_linear_1116_5)"/>
<defs>
<linearGradient id="paint0_linear_1116_5" x1="21.5628" y1="4.69836" x2="32.2526" y2="31.6774" gradientUnits="userSpaceOnUse">
<stop offset="0.259336" stop-color="#FFDB6E"/>
<stop offset="1" stop-color="#FFBC5E"/>
</linearGradient>
</defs>
</svg>
