<svg width="40" height="40" viewBox="0 0 40 40" fill="none" xmlns="http://www.w3.org/2000/svg">
<path d="M36.1875 18.3281L23.7266 5.86719C23.2812 5.42188 22.6875 5.17188 22.0703 5.17188C20.7656 5.17188 19.7031 6.23438 19.7031 7.53125V11.2031C19.7031 11.8359 19.9453 12.4219 20.3906 12.875L27.5078 19.9922L20.3906 27.1094C19.9453 27.5547 19.7031 28.1484 19.7031 28.7812V32.4531C19.7031 33.7578 20.7656 34.8125 22.0703 34.8125C22.6875 34.8125 23.2812 34.5625 23.7266 34.1172L36.1875 21.6563C37.1016 20.75 37.1016 19.25 36.1875 18.3281ZM35.6328 21.1172L23.1719 33.5781C22.1797 34.5703 20.4766 33.8672 20.4766 32.4609V28.7891C20.4766 28.3672 20.6406 27.9688 20.9375 27.6719L28.6094 20L20.9375 12.3281C20.6406 12.0313 20.4766 11.6328 20.4766 11.2109V7.53906C20.4766 6.13281 22.1797 5.42969 23.1719 6.42188L35.6328 18.8828C36.25 19.5 36.25 20.5 35.6328 21.1172Z" fill="url(#paint0_linear_1112_13)" stroke="url(#paint1_linear_1112_13)" stroke-width="0.5"/>
<path d="M19.6094 18.3281L7.14844 5.86719C6.70312 5.42188 6.10938 5.17188 5.49219 5.17188C4.1875 5.17188 3.125 6.23438 3.125 7.53125V11.2031C3.125 11.8359 3.36719 12.4219 3.8125 12.875L10.9375 19.9922L3.8125 27.1094C3.36719 27.5547 3.125 28.1484 3.125 28.7812V32.4531C3.125 33.7578 4.1875 34.8125 5.49219 34.8125C6.10938 34.8125 6.70312 34.5625 7.14844 34.1172L19.6094 21.6563C20.5312 20.75 20.5312 19.25 19.6094 18.3281ZM19.0625 21.1172L6.60156 33.5781C5.60938 34.5703 3.90625 33.8672 3.90625 32.4609V28.7891C3.90625 28.3672 4.07031 27.9688 4.36719 27.6719L12.0391 20L4.36719 12.3281C4.07031 12.0313 3.90625 11.6328 3.90625 11.2109V7.53906C3.90625 6.13281 5.60938 5.42969 6.60156 6.42188L19.0625 18.8828C19.6797 19.5 19.6797 20.5 19.0625 21.1172Z" fill="url(#paint2_linear_1112_13)" stroke="url(#paint3_linear_1112_13)" stroke-width="0.5"/>
<defs>
<linearGradient id="paint0_linear_1112_13" x1="28.5751" y1="5" x2="43.3129" y2="22.7924" gradientUnits="userSpaceOnUse">
<stop offset="0.259336" stop-color="#FFDB6E"/>
<stop offset="1" stop-color="#FFBC5E"/>
</linearGradient>
<linearGradient id="paint1_linear_1112_13" x1="28.5751" y1="5" x2="28.5751" y2="35" gradientUnits="userSpaceOnUse">
<stop offset="0.26" stop-color="#FFDB6E"/>
<stop offset="1" stop-color="#FFBC5E"/>
</linearGradient>
<linearGradient id="paint2_linear_1112_13" x1="12" y1="5" x2="26.7369" y2="22.7973" gradientUnits="userSpaceOnUse">
<stop offset="0.259336" stop-color="#FFDB6E"/>
<stop offset="1" stop-color="#FFBC5E"/>
</linearGradient>
<linearGradient id="paint3_linear_1112_13" x1="12" y1="5" x2="12" y2="35" gradientUnits="userSpaceOnUse">
<stop offset="0.26" stop-color="#FFDB6E"/>
<stop offset="1" stop-color="#FFBC5E"/>
</linearGradient>
</defs>
</svg>
