<svg width="40" height="40" viewBox="0 0 40 40" fill="none" xmlns="http://www.w3.org/2000/svg">
<g clip-path="url(#clip0_1118_103)">
<mask id="mask0_1118_103" style="mask-type:luminance" maskUnits="userSpaceOnUse" x="0" y="0" width="40" height="40">
<path d="M0 0.000118256H39.9999V40H0V0.000118256Z" fill="white"/>
</mask>
<g mask="url(#mask0_1118_103)">
<path d="M4.7775 6.28827C4.7784 6.3665 4.76376 6.44414 4.73445 6.51667C4.70513 6.58921 4.66172 6.65521 4.60671 6.71085C4.55171 6.76648 4.48622 6.81066 4.41402 6.8408C4.34183 6.87095 4.26437 6.88647 4.18613 6.88647C4.10789 6.88647 4.03044 6.87095 3.95824 6.8408C3.88605 6.81066 3.82055 6.76648 3.76555 6.71085C3.71055 6.65521 3.66713 6.58921 3.63781 6.51667C3.6085 6.44414 3.59387 6.3665 3.59477 6.28827C3.59655 6.13261 3.65965 5.98393 3.77036 5.87449C3.88106 5.76504 4.03046 5.70367 4.18613 5.70367C4.3418 5.70367 4.4912 5.76504 4.60191 5.87449C4.71262 5.98393 4.77571 6.13261 4.7775 6.28827Z" fill="url(#paint0_linear_1118_103)"/>
<path d="M7.35562 6.28827C7.35652 6.3665 7.34189 6.44414 7.31257 6.51667C7.28326 6.58921 7.23984 6.65521 7.18484 6.71085C7.12984 6.76648 7.06434 6.81066 6.99215 6.8408C6.91995 6.87095 6.84249 6.88647 6.76426 6.88647C6.68602 6.88647 6.60856 6.87095 6.53637 6.8408C6.46417 6.81066 6.39868 6.76648 6.34367 6.71085C6.28867 6.65521 6.24525 6.58921 6.21594 6.51667C6.18662 6.44414 6.17199 6.3665 6.17289 6.28827C6.17468 6.13261 6.23777 5.98393 6.34848 5.87449C6.45919 5.76504 6.60858 5.70367 6.76426 5.70367C6.91993 5.70367 7.06932 5.76504 7.18003 5.87449C7.29074 5.98393 7.35383 6.13261 7.35562 6.28827Z" fill="url(#paint1_linear_1118_103)"/>
<path d="M9.93277 6.28827C9.93367 6.3665 9.91904 6.44414 9.88972 6.51667C9.86041 6.58921 9.81699 6.65521 9.76199 6.71085C9.70698 6.76648 9.64149 6.81066 9.56929 6.8408C9.4971 6.87095 9.41964 6.88647 9.3414 6.88647C9.26317 6.88647 9.18571 6.87095 9.11351 6.8408C9.04132 6.81066 8.97582 6.76648 8.92082 6.71085C8.86582 6.65521 8.8224 6.58921 8.79309 6.51667C8.76377 6.44414 8.74914 6.3665 8.75004 6.28827C8.75183 6.13261 8.81492 5.98393 8.92563 5.87449C9.03634 5.76504 9.18573 5.70367 9.3414 5.70367C9.49708 5.70367 9.64647 5.76504 9.75718 5.87449C9.86789 5.98393 9.93098 6.13261 9.93277 6.28827Z" fill="url(#paint2_linear_1118_103)"/>
</g>
<g clip-path="url(#clip1_1118_103)">
<path d="M23.2314 16.6687H27.802" stroke="url(#paint3_linear_1118_103)" stroke-width="1.5" stroke-linecap="round"/>
<path d="M32.3726 11.4724H23.2314" stroke="url(#paint4_linear_1118_103)" stroke-width="1.5" stroke-linecap="round"/>
<path d="M32.3726 14.0706H23.2314" stroke="url(#paint5_linear_1118_103)" stroke-width="1.5" stroke-linecap="round"/>
<mask id="mask1_1118_103" style="mask-type:luminance" maskUnits="userSpaceOnUse" x="-1" y="0" width="41" height="41">
<path d="M-0.234375 0.234493H39.7655V40.2344H-0.234375V0.234493Z" fill="white"/>
</mask>
<g mask="url(#mask1_1118_103)">
<path d="M0.351564 8.71793H36.0446M36.0446 17.7432V5.58919C36.0446 4.89231 35.4797 4.32739 34.7829 4.32739H1.61328C0.916407 4.32739 0.351562 4.89231 0.351562 5.58919V27.8837C0.351562 28.5805 0.916407 29.1454 1.61328 29.1454H23.7856M15.0445 29.1454L14.2997 32.8789M22.0963 32.879L21.3515 29.1454M38.0979 24.7375L38.0842 24.7374C37.8826 24.7351 37.7089 24.5974 37.6481 24.4051C37.5433 24.0743 37.41 23.7532 37.2496 23.4455C37.1563 23.2664 37.1816 23.046 37.3226 22.9014L37.3329 22.8909C37.7554 22.4684 37.7554 21.7835 37.3329 21.3611L36.7655 20.7937C36.3431 20.3712 35.6582 20.3712 35.2358 20.7937L35.2252 20.804C35.0806 20.945 34.8603 20.9704 34.6812 20.8771C34.3735 20.7167 34.0523 20.5833 33.7215 20.4785C33.5292 20.4178 33.3916 20.2441 33.3892 20.0424L33.3891 20.0288C33.3891 19.4313 32.9048 18.947 32.3074 18.947H31.5049C30.9075 18.947 30.4232 19.4313 30.4232 20.0288L30.4231 20.0424C30.4207 20.2441 30.283 20.4178 30.0908 20.4785C29.76 20.5833 29.4389 20.7167 29.1312 20.8771C28.9521 20.9704 28.7317 20.945 28.5871 20.804L28.5766 20.7937C28.1541 20.3712 27.4692 20.3712 27.0468 20.7937L26.4793 21.3611C26.0569 21.7835 26.0569 22.4684 26.4794 22.8909L26.4897 22.9014C26.6306 23.046 26.656 23.2664 26.5627 23.4455C26.4023 23.7532 26.269 24.0743 26.1643 24.4051C26.1034 24.5973 25.9298 24.7351 25.7283 24.7374L25.715 24.7375C25.1195 24.7378 24.6327 25.194 24.6327 25.7894V26.6515C24.6327 27.247 25.1195 27.7032 25.715 27.7035L25.7283 27.7036C25.9298 27.7059 26.1034 27.8437 26.1643 28.0358C26.269 28.3667 26.4023 28.6878 26.5627 28.9955C26.656 29.1746 26.6306 29.395 26.4897 29.5396L26.4794 29.5501C26.0569 29.9726 26.0569 30.6574 26.4794 31.0799L27.0468 31.6473C27.4692 32.0698 28.1541 32.0698 28.5766 31.6473L28.5871 31.6369C28.7316 31.496 28.952 31.4706 29.1312 31.5639C29.4389 31.7243 29.76 31.8576 30.0908 31.9624C30.283 32.0232 30.4207 32.1968 30.4231 32.3986L30.4232 32.4122C30.4232 33.0097 30.9075 33.4939 31.5049 33.4939H32.3074C32.9048 33.4939 33.3891 33.0097 33.3891 32.4122L33.3892 32.3986C33.3916 32.1968 33.5292 32.0232 33.7215 31.9624C34.0523 31.8577 34.3735 31.7243 34.6812 31.5639C34.8603 31.4706 35.0806 31.496 35.2252 31.6369L35.2358 31.6473C35.6582 32.0698 36.3431 32.0698 36.7655 31.6473L37.3329 31.0799C37.7554 30.6574 37.7554 29.9726 37.3329 29.5501L37.3226 29.5396C37.1816 29.395 37.1563 29.1746 37.2496 28.9955C37.41 28.6878 37.5433 28.3667 37.6481 28.0358C37.7089 27.8436 37.8826 27.7059 38.0842 27.7036L38.0979 27.7035C38.6953 27.7035 39.1796 27.2192 39.1796 26.6217V25.8193C39.1796 25.2218 38.6953 24.7375 38.0979 24.7375ZM35.4441 26.2205C35.4441 28.1745 33.8602 29.7585 31.9062 29.7585C29.9522 29.7585 28.3682 28.1745 28.3682 26.2205C28.3682 24.2666 29.9522 22.6826 31.9062 22.6826C33.8602 22.6826 35.4441 24.2666 35.4441 26.2205ZM24.2981 36.1414H12.0981C11.5404 36.1414 11.0882 35.6893 11.0882 35.1314C11.0882 33.8875 12.0967 32.879 13.3407 32.879H23.0556C24.2995 32.879 25.308 33.8875 25.308 35.1314C25.308 35.6893 24.8559 36.1414 24.2981 36.1414ZM20.9674 16.6055V11.5357C20.9674 11.4506 20.9336 11.3689 20.8733 11.3087C20.8131 11.2485 20.7315 11.2147 20.6463 11.2147H3.68177C3.59662 11.2147 3.51496 11.2485 3.45475 11.3087C3.39453 11.3689 3.3607 11.4506 3.36067 11.5357V16.6055C3.36067 16.6906 3.3945 16.7723 3.45472 16.8325C3.51494 16.8927 3.59661 16.9266 3.68177 16.9266H20.6463C20.7315 16.9266 20.8132 16.8927 20.8734 16.8325C20.9336 16.7723 20.9674 16.6906 20.9674 16.6055ZM7.44373 20.233H3.68171C3.59656 20.233 3.5149 20.2668 3.45469 20.327C3.39447 20.3873 3.36064 20.4689 3.36062 20.5541V25.6238C3.36064 25.709 3.39448 25.7906 3.45469 25.8508C3.51491 25.911 3.59656 25.9448 3.68171 25.9448H7.44373C7.52888 25.9448 7.61054 25.911 7.67075 25.8508C7.73096 25.7906 7.7648 25.709 7.76482 25.6238V20.5541C7.76482 20.4689 7.73099 20.3872 7.67078 20.327C7.61056 20.2668 7.52889 20.233 7.44373 20.233ZM10.3774 20.5541V25.6239C10.3774 25.709 10.4112 25.7907 10.4714 25.8509C10.5316 25.9111 10.6133 25.9449 10.6984 25.9449H20.6464C20.7315 25.9449 20.8132 25.9111 20.8734 25.8509C20.9336 25.7907 20.9675 25.709 20.9675 25.6239V20.5541C20.9675 20.469 20.9336 20.3873 20.8734 20.3271C20.8132 20.2669 20.7315 20.233 20.6464 20.233H10.6984C10.6133 20.233 10.5316 20.2669 10.4714 20.3271C10.4112 20.3873 10.3774 20.469 10.3774 20.5541Z" stroke="url(#paint6_linear_1118_103)" stroke-width="1.5"/>
</g>
</g>
</g>
<defs>
<linearGradient id="paint0_linear_1118_103" x1="4.2059" y1="6.89333" x2="4.67282" y2="5.92022" gradientUnits="userSpaceOnUse">
<stop offset="0.259336" stop-color="#FFDB6E"/>
<stop offset="1" stop-color="#FFBC5E"/>
</linearGradient>
<linearGradient id="paint1_linear_1118_103" x1="6.78403" y1="6.89333" x2="7.25095" y2="5.92022" gradientUnits="userSpaceOnUse">
<stop offset="0.259336" stop-color="#FFDB6E"/>
<stop offset="1" stop-color="#FFBC5E"/>
</linearGradient>
<linearGradient id="paint2_linear_1118_103" x1="9.36118" y1="6.89333" x2="9.8281" y2="5.92022" gradientUnits="userSpaceOnUse">
<stop offset="0.259336" stop-color="#FFDB6E"/>
<stop offset="1" stop-color="#FFBC5E"/>
</linearGradient>
<linearGradient id="paint3_linear_1118_103" x1="25.4944" y1="16.658" x2="25.4944" y2="15.6794" gradientUnits="userSpaceOnUse">
<stop offset="0.26" stop-color="#FFDB6E"/>
<stop offset="1" stop-color="#FFBC5E"/>
</linearGradient>
<linearGradient id="paint4_linear_1118_103" x1="27.7574" y1="11.4617" x2="27.7574" y2="10.4831" gradientUnits="userSpaceOnUse">
<stop offset="0.26" stop-color="#FFDB6E"/>
<stop offset="1" stop-color="#FFBC5E"/>
</linearGradient>
<linearGradient id="paint5_linear_1118_103" x1="27.7574" y1="14.0599" x2="27.7574" y2="13.0812" gradientUnits="userSpaceOnUse">
<stop offset="0.26" stop-color="#FFDB6E"/>
<stop offset="1" stop-color="#FFBC5E"/>
</linearGradient>
<linearGradient id="paint6_linear_1118_103" x1="20" y1="4" x2="20" y2="37" gradientUnits="userSpaceOnUse">
<stop offset="0.26" stop-color="#FFDB6E"/>
<stop offset="1" stop-color="#FFBC5E"/>
</linearGradient>
<clipPath id="clip0_1118_103">
<rect width="40" height="40" fill="white"/>
</clipPath>
<clipPath id="clip1_1118_103">
<rect width="40" height="40" fill="white" transform="translate(-0.234375 0.234375)"/>
</clipPath>
</defs>
</svg>
